<svg width="24" height="24" viewBox="0 0 24 24" fill="none" xmlns="http://www.w3.org/2000/svg" role="img" aria-label="CBLite Viewer">
  <path d="M4 6.4C4 4.5 7.6 3 12 3s8 1.5 8 3.4v11.2C20 19.5 16.4 21 12 21s-8-1.5-8-3.4V6.4Z" fill="#D71920"/>
  <path d="M20 6.4c0 1.9-3.6 3.4-8 3.4S4 8.3 4 6.4 7.6 3 12 3s8 1.5 8 3.4Z" fill="#F05A5F"/>
  <path d="M18.5 11.9c-1.4 1.1-3.8 1.8-6.5 1.8s-5.1-.7-6.5-1.8" stroke="#FFFFFF" stroke-opacity=".55" stroke-width="1.35" stroke-linecap="round"/>
  <path d="M18.5 16.2c-1.4 1.1-3.8 1.8-6.5 1.8s-5.1-.7-6.5-1.8" stroke="#FFFFFF" stroke-opacity=".55" stroke-width="1.35" stroke-linecap="round"/>
  <path d="M13.2 5.2 9.1 11h3.1l-1.4 5.1 4.2-6h-3.1l1.3-4.9Z" fill="#FFFFFF"/>
</svg>
